<svg xmlns="http://www.w3.org/2000/svg" xmlns:xlink="http://www.w3.org/1999/xlink" width="278" height="278" viewBox="0 0 278 278">
  <defs>
    <linearGradient id="linear-gradient" x1="0.993" y1="0.482" x2="0.118" y2="0.477" gradientUnits="objectBoundingBox">
      <stop offset="0" stop-color="#c5ea75"/>
      <stop offset="0.331" stop-color="#69c685"/>
      <stop offset="0.657" stop-color="#40b28a"/>
      <stop offset="1" stop-color="#189d8b"/>
    </linearGradient>
    <filter id="Sustracción_2" x="11.135" y="14.134" width="256.731" height="256.731" filterUnits="userSpaceOnUse">
      <feOffset dy="3" input="SourceAlpha"/>
      <feGaussianBlur stdDeviation="3" result="blur"/>
      <feFlood flood-opacity="0.161"/>
      <feComposite operator="in" in2="blur"/>
      <feComposite in="SourceGraphic"/>
    </filter>
    <clipPath id="clip-main">
      <rect width="278" height="278"/>
    </clipPath>
  </defs>
  <g id="main" clip-path="url(#clip-main)">
    <g id="Componente_4_1" data-name="Componente 4 – 1" transform="translate(-156.208 -156.208)">
      <rect id="Rectángulo_9" data-name="Rectángulo 9" width="418.194" height="418.194" rx="15" transform="translate(591.416 295.708) rotate(135)" fill="url(#linear-gradient)"/>
      <g transform="matrix(1, 0, 0, 1, 156.21, 156.21)" filter="url(#Sustracción_2)">
        <path id="Sustracción_2-2" data-name="Sustracción 2" d="M137.342,256.707a12.979,12.979,0,0,1-6.766-1.9c.083-.969.173-1.956.266-2.933-3.013-3.286-17.389-20.8-4.476-42.821l0-.008c.184-.335,1.848-3.382,3.5-7.009,1.611-3.535,3.554-8.385,3.663-11.416a14.454,14.454,0,0,0-2.48-7.833,22.431,22.431,0,0,0-2.639-3.432c0-.126.119-3.073,2-3.073h.051l-.005-.043c-.256-2.2-.52-4.476,3.077-6.1a15.53,15.53,0,0,0,5.121,2.048,2.929,2.929,0,0,0,.513.046,4.921,4.921,0,0,0,1.858-.479l.149-.059a6.026,6.026,0,0,1,2.363-.538c.078,0,.158,0,.237.005a19.7,19.7,0,0,1,6.144,2.251,29.853,29.853,0,0,1,7.169,4.918,30.872,30.872,0,0,0,5.109-5.1l.009-.012-1.022,5.116.015-.007a21.866,21.866,0,0,1,5.832-1.411,1.713,1.713,0,0,1,1.32.394c-.154,2.4-1.445,4.872-2.939,7.735-2.2,4.218-4.94,9.467-5.253,16.841a36.116,36.116,0,0,0,5.725,13.878,45.657,45.657,0,0,0,8.423,9.361L146.533,252.9A12.913,12.913,0,0,1,137.342,256.707Zm-21.265-15.88L21.784,146.534a13,13,0,0,1,0-18.385L128.149,21.784a13,13,0,0,1,18.384,0L252.9,128.149a13,13,0,0,1,0,18.384l-57.233,57.233c-1.054-1.445-2.032-2.869-2.977-4.245l-.023-.034c-3.932-5.728-7.647-11.139-15.575-16.195-3.961-8.34-9.093-13.982-14.525-19.955-2.256-2.48-4.587-5.043-6.871-7.859-.421-.367-.172-3.475.2-8.181l0-.022c.321-4.005.721-8.99.864-14.263.136-5,.436-8.724.7-12.012v-.01c.544-6.775.9-11.251-.7-20.071-2.439-6.33-5.421-11.162-9.119-14.774a27.39,27.39,0,0,0-11.208-6.622c-1.232-.074-2.395-.122-3.421-.164l-.162-.007c-3.172-.129-5.464-.222-7.114-.9a21.331,21.331,0,0,1-3.9-2.975C118.952,73,115,69.617,110.765,67.756a4.383,4.383,0,0,0-2.015-.529c-2.761,0-5.323,3.057-7.614,9.087a24.1,24.1,0,0,0-1.67,7.257,17.431,17.431,0,0,0,.6,5.581c.493,1.852,2.5,3.864,4.266,5.639,1.474,1.478,2.866,2.875,3.223,3.989a6,6,0,0,1-.07,2.644v0a4.53,4.53,0,0,0,.071,2.7,5.112,5.112,0,0,0,1.507,2.1,7.3,7.3,0,0,1,1.7,2.177,22.72,22.72,0,0,1,2.139,13.908,6.21,6.21,0,0,1-1.876,4.333,3.962,3.962,0,0,0-1.334,3.155,14.393,14.393,0,0,1-.428,4.148,24.009,24.009,0,0,0-.642,5.48A18.965,18.965,0,0,1,106.8,147.1a21.452,21.452,0,0,0-1.383,4.1,27.031,27.031,0,0,0-.455,5.249v.014a32.164,32.164,0,0,1-.615,6.506c-.317,1.514-.9,3.479-1.567,5.754C101.246,173.915,99.34,180.378,99,186.5a53.362,53.362,0,0,0,1.609,12.358,54.42,54.42,0,0,0,3.623,10.019,71.239,71.239,0,0,0,8.228,13.02c.585.767,1.137,1.492,1.516,2.046,2.131,3.115,2.112,5.77,2.075,11.06-.012,1.675-.026,3.571.027,5.82Z" transform="translate(2.16 2.16)" fill="#101341"/>
      </g>
    </g>
  </g>
</svg>
